<svg height="512" viewBox="0 0 32 58" width="512" xmlns="http://www.w3.org/2000/svg"><g id="Page-1" fill="none" fill-rule="evenodd"><g id="021---Hang-Man" fill-rule="nonzero" transform="translate(0 -1)"><path id="Shape" d="m14 7c-.9295098.00367114-1.739029-.63353249-1.9537866-1.53790029-.2147575-.9043678.2218616-1.83748818 1.0537866-2.25209971l4-2c.9883136-.49705625 2.1924437-.09881354 2.6895.88950001.4970562.98831355.0988135 2.19244371-.8895 2.68949999l-4 2c-.2794067.1396498-.5876391.21191319-.9.211z" fill="#cb8252"/><path id="Shape" d="m14 11.472c-.9295098.0036711-1.739029-.6335325-1.9537866-1.53790029-.2147575-.9043678.2218616-1.83748818 1.0537866-2.25209971l4-2c.6391481-.32153904 1.4012844-.27767189 1.9993195.11507712.598035.39274901.9411131 1.07471196.9 1.78900001s-.4601713 1.35238385-1.0993195 1.67392287l-4 2c-.2791294.140527-.5874945.2131641-.9.212z" fill="#a56a43"/><path id="Shape" d="m18.11 14.12.78-.39c.653178-.3089872 1.0882236-.9470114 1.1372933-1.6679183s-.2955076-1.4119974-.9007916-1.8066439c-.605284-.39464646-1.3766508-.43115403-2.0165017-.0954378l-4 2c-.8364625.4140976-1.272993 1.3536775-1.05 2.26z" fill="#cb8252"/><path id="Shape" d="m10.18 42.22c-5.62 5.43-8.07 4.54-9.16 2.85-.81524715-1.3746185-.84564952-3.0771512-.08-4.48.63517652-1.3042852 1.46462062-2.504619 2.46-3.56 1.2561104-1.3656565 2.85471015-2.3703919 4.63-2.91l1.44 5.42z" fill="#fdd7ad"/><path id="Shape" d="m30.98 45.07c-1.12 1.74-3.69 2.64-9.69-3.36l1.04-2.14 2.5-5.15c1.4275129.5928478 2.7126099 1.4825304 3.77 2.61.9953794 1.055381 1.8248235 2.2557148 2.46 3.56.7656495 1.4028488.7352472 3.1053815-.08 4.48z" fill="#fdd7ad"/><path id="Shape" d="m8.03 34.12 1.44 5.42c-2.22124749-.240874-4.3273339-1.1117598-6.07-2.51 1.2561104-1.3656565 2.85471015-2.3703919 4.63-2.91z" fill="#f9c795"/><path id="Shape" d="m28.6 37.03c-1.28 1.17-3.24 2.05-6.27 2.54l2.5-5.15c1.4275129.5928478 2.7126099 1.4825304 3.77 2.61z" fill="#f9c795"/><path id="Shape" d="m6.732 46.09c-.57448907 3.2263612-.79579453 6.5057056-.66 9.78.07862332 1.5998525 1.29153871 2.9138441 2.88 3.12.09642993.0083255.19322562.0116633.29.01 1.2273854-.012722 2.3406369-.7225653 2.87-1.83.75-1.5 1.5-4.05 1.61-8.26z" fill="#4482c3"/><path id="Shape" d="m25.272 46.09c.5744891 3.2263612.7957945 6.5057056.66 9.78-.0786233 1.5998525-1.2915387 2.9138441-2.88 3.12-.0964299.0083255-.1932256.0116633-.29.01-1.2273854-.012722-2.3406369-.7225653-2.87-1.83-.75-1.5-1.5-4.05-1.61-8.26z" fill="#4482c3"/><path id="Shape" d="m24.74 37.04c.7222133 2.1022709 1.1332255 4.2988279 1.22 6.52.0359419.60096-.0631493 1.2023411-.29 1.76-.0990637.2730648-.2335459.5319432-.4.77-.2226982.3310035-.4999703.621801-.82.86-1.8355191 1.2120116-3.971528 1.8905493-6.17 1.96-.7.06-1.45.09-2.28.09s-1.58-.03-2.28-.09c-2.198472-.0694507-4.33448094-.7479884-6.17-1.96-.32002971-.238199-.59730176-.5289965-.82-.86-.16645405-.2380568-.30093635-.4969352-.4-.77-.22685066-.5576589-.32594187-1.15904-.29-1.76.08677448-2.2211721.49778668-4.4177291 1.22-6.52z" fill="#955ba5"/><path id="Shape" d="m17 45h-2c-.5522847 0-1-.4477153-1-1s.4477153-1 1-1h2c.5522847 0 1 .4477153 1 1s-.4477153 1-1 1z" fill="#894b9d"/><path id="Shape" d="m16 14c-3.8280441-.0545412-7.56261783 1.1835053-10.6 3.514-2.6933872 2.0017099-4.31607356 5.1312819-4.4 8.486 0 3.315 0 6.315 1.875 8.486s5.625 3.514 13.125 3.514 11.25-1.342 13.125-3.514 1.875-5.171 1.875-8.486c-.0839264-3.3547181-1.7066128-6.4842901-4.4-8.486-3.0373822-2.3304947-6.7719559-3.5685412-10.6-3.514z" fill="#fdd7ad"/><circle id="Oval" cx="9.5" cy="29.5" fill="#35495e" r="3.5"/><path id="Shape" d="m12 34h-5c-.55228475 0-1-.4477153-1-1s.44771525-1 1-1h5c.5522847 0 1 .4477153 1 1s-.4477153 1-1 1z" fill="#f9c795"/><circle id="Oval" cx="22.5" cy="29.5" fill="#35495e" r="3.5"/><path id="Shape" d="m25 34h-5c-.5522847 0-1-.4477153-1-1s.4477153-1 1-1h5c.5522847 0 1 .4477153 1 1s-.4477153 1-1 1z" fill="#f9c795"/><g fill="#fff"><circle id="Oval" cx="8" cy="28" r="1"/><circle id="Oval" cx="21" cy="28" r="1"/></g></g></g></svg>